<svg xmlns="http://www.w3.org/2000/svg" width="900" height="520" viewBox="0 0 900 520">
<defs>
<linearGradient id="bg" x1="0" y1="0" x2="1" y2="1"><stop stop-color="#07101a"/><stop offset="1" stop-color="#02050a"/></linearGradient>
<linearGradient id="skin" x1="0" y1="0" x2="1" y2="1"><stop stop-color="#77706b"/><stop offset="1" stop-color="#343a42"/></linearGradient>
<filter id="g"><feGaussianBlur stdDeviation="7" result="b"/><feMerge><feMergeNode in="b"/><feMergeNode in="SourceGraphic"/></feMerge></filter>
</defs>
<rect width="900" height="520" fill="url(#bg)"/>
<g opacity=".45"><line x1="70" y1="90" x2="70" y2="520" stroke="#152233"/><line x1="160" y1="90" x2="160" y2="520" stroke="#152233"/><line x1="250" y1="90" x2="250" y2="520" stroke="#152233"/><line x1="340" y1="90" x2="340" y2="520" stroke="#152233"/><line x1="430" y1="90" x2="430" y2="520" stroke="#152233"/><line x1="520" y1="90" x2="520" y2="520" stroke="#152233"/><line x1="610" y1="90" x2="610" y2="520" stroke="#152233"/><line x1="700" y1="90" x2="700" y2="520" stroke="#152233"/><line x1="790" y1="90" x2="790" y2="520" stroke="#152233"/></g>
<circle cx="720" cy="150" r="115" fill="#0d2031" opacity=".38" filter="url(#g)"/>
<text x="44" y="54" fill="#7d91a9" font-family="Arial" font-size="16" letter-spacing="3">BODY OS • EXERCISE MOCKUP</text>
<text x="44" y="86" fill="#eef5ff" font-family="Arial" font-size="24" font-weight="700">ROWING POITRINE SUPPORTÉE</text>
<path d="M190 445 H700 M260 445 L300 120 M610 445 L565 120" stroke="#263547" stroke-width="14" stroke-linecap="round"/>
<path d="M270 135 H595" stroke="#364b63" stroke-width="13" stroke-linecap="round"/>
<circle cx="425" cy="205" r="34" fill="url(#skin)" stroke="#8794a3" stroke-width="3"/>
<path d="M385 265 Q323 320 347 435 Q385 460 427 435 Q453 320 385 265Z" fill="#171c23" stroke="#6e7b8b" stroke-width="4"/>
<path d="M355 335 L315 285" stroke="#70767c" stroke-width="30" stroke-linecap="round"/>
<path d="M419 335 L490 285" stroke="#70767c" stroke-width="30" stroke-linecap="round"/>
<path d="M367 440 L250 320" stroke="#313a45" stroke-width="34" stroke-linecap="round"/>
<path d="M407 440 L555 320" stroke="#313a45" stroke-width="34" stroke-linecap="round"/>
<circle cx="315" cy="285" r="18" fill="#8a8d90"/><circle cx="490" cy="285" r="18" fill="#8a8d90"/>
<path d="M735 325 C790 300 815 250 800 205" fill="none" stroke="#3d97ff" stroke-width="8" stroke-linecap="round" filter="url(#g)"/>
<path d="M798 205 l-15 30 31-9z" fill="#65b0ff"/>
<rect x="620" y="400" rx="16" width="232" height="78" fill="#08121e" stroke="#26384c"/>
<text x="642" y="430" fill="#6d8299" font-family="Arial" font-size="13">CIBLE</text>
<text x="642" y="456" fill="#49a0ff" font-family="Arial" font-size="18" font-weight="700">DOS</text>
</svg>